<?xml version="1.0" encoding="UTF-8" standalone="no"?>
<svg
   width="16"
   height="16"
   version="1.1"
   id="svg1"
   sodipodi:docname="BuisListInsertionCarret.svg"
   inkscape:version="1.4.2 (ebf0e940d0, 2025-05-08)"
   xmlns:inkscape="http://www.inkscape.org/namespaces/inkscape"
   xmlns:sodipodi="http://sodipodi.sourceforge.net/DTD/sodipodi-0.dtd"
   xmlns="http://www.w3.org/2000/svg"
   xmlns:svg="http://www.w3.org/2000/svg">
  <defs
     id="defs1" />
  <sodipodi:namedview
     id="namedview1"
     pagecolor="#505050"
     bordercolor="#eeeeee"
     borderopacity="1"
     inkscape:showpageshadow="0"
     inkscape:pageopacity="0"
     inkscape:pagecheckerboard="0"
     inkscape:deskcolor="#505050"
     inkscape:zoom="22.580109"
     inkscape:cx="-1.2843162"
     inkscape:cy="2.0593346"
     inkscape:window-width="1920"
     inkscape:window-height="1008"
     inkscape:window-x="0"
     inkscape:window-y="0"
     inkscape:window-maximized="1"
     inkscape:current-layer="svg1" />
  <path
     id="path2"
     style="fill:#e0e0e0;fill-opacity:1"
     d="M 2 2 L 2 7.3320312 L 7 7.3320312 L 8.6660156 4 L 14 4 L 14 2 L 2 2 z M 4.125 2.625 L 5.125 2.625 L 5.125 4.125 L 6.625 4.125 L 6.625 5.125 L 5.125 5.125 L 5.125 6.625 L 4.125 6.625 L 4.125 5.125 L 2.625 5.125 L 2.625 4.125 L 4.125 4.125 L 4.125 2.625 z M 9.3320312 5.3320312 L 8.3320312 7.3320312 L 14 7.3320312 L 14 5.3320312 L 9.3320312 5.3320312 z M 2 8.6660156 L 2 10.666016 L 14 10.666016 L 14 8.6660156 L 2 8.6660156 z M 2 12 L 2 14 L 14 14 L 14 12 L 2 12 z " />
</svg>
